<svg xmlns="http://www.w3.org/2000/svg" viewBox="0 0 55 55">
    <title>via-point-break</title>
    <path d="M43.83,20.25c0,12.37-16.33,30.34-16.33,30.34S11.17,32.39,11.17,20.25A16.23,16.23,0,0,1,27.3,3.92h.2A16.23,16.23,0,0,1,43.83,20.05Z"
          fill="#fff"/>
    <path d="M27.5,52.08l-.74-.83c-.68-.75-16.59-18.62-16.59-31A17.23,17.23,0,0,1,27.29,2.92h.22A17.27,17.27,0,0,1,44.83,20.05v.2c0,12.61-15.91,30.26-16.59,31ZM27.31,4.92A15.23,15.23,0,0,0,12.17,20.25c0,10.16,12.18,25.11,15.34,28.82,3.16-3.68,15.32-18.47,15.32-28.82v-.19A15.24,15.24,0,0,0,27.6,4.92h-.29Z"
          fill="#faa934"/>
    <path d="M22.67,27.17H26V15.42H22.67Zm6.71-11.75V27.17h3.36V15.42Z" fill="#faa934"/>
</svg>